<mxfile host="Electron" agent="Mozilla/5.0 (Windows NT 10.0; Win64; x64) AppleWebKit/537.36 (KHTML, like Gecko) draw.io/28.0.6 Chrome/138.0.7204.100 Electron/37.2.3 Safari/537.36" version="28.0.6">
  <diagram name="Page-1" id="11z97PYpV2WfbkA4ZWs-">
    <mxGraphModel dx="1042" dy="626" grid="1" gridSize="10" guides="1" tooltips="1" connect="1" arrows="1" fold="1" page="1" pageScale="1" pageWidth="850" pageHeight="1100" math="0" shadow="0">
      <root>
        <mxCell id="0" />
        <mxCell id="1" parent="0" />
        <mxCell id="GKDBONKlt1VH__M1MJNB-3" value="" style="edgeStyle=orthogonalEdgeStyle;rounded=0;orthogonalLoop=1;jettySize=auto;html=1;" edge="1" parent="1" source="GKDBONKlt1VH__M1MJNB-1" target="GKDBONKlt1VH__M1MJNB-2">
          <mxGeometry relative="1" as="geometry" />
        </mxCell>
        <mxCell id="GKDBONKlt1VH__M1MJNB-1" value="Start" style="rounded=1;whiteSpace=wrap;html=1;" vertex="1" parent="1">
          <mxGeometry x="240" y="10" width="90" height="40" as="geometry" />
        </mxCell>
        <mxCell id="GKDBONKlt1VH__M1MJNB-5" value="" style="edgeStyle=orthogonalEdgeStyle;rounded=0;orthogonalLoop=1;jettySize=auto;html=1;" edge="1" parent="1" source="GKDBONKlt1VH__M1MJNB-2" target="GKDBONKlt1VH__M1MJNB-4">
          <mxGeometry relative="1" as="geometry" />
        </mxCell>
        <mxCell id="GKDBONKlt1VH__M1MJNB-2" value="load schedule&amp;nbsp;&lt;div&gt;&amp;amp; time&lt;/div&gt;" style="rounded=0;whiteSpace=wrap;html=1;" vertex="1" parent="1">
          <mxGeometry x="240" y="80" width="90" height="50" as="geometry" />
        </mxCell>
        <mxCell id="GKDBONKlt1VH__M1MJNB-9" value="" style="edgeStyle=orthogonalEdgeStyle;rounded=0;orthogonalLoop=1;jettySize=auto;html=1;" edge="1" parent="1" source="GKDBONKlt1VH__M1MJNB-4" target="GKDBONKlt1VH__M1MJNB-8">
          <mxGeometry relative="1" as="geometry" />
        </mxCell>
        <mxCell id="GKDBONKlt1VH__M1MJNB-11" value="Yes" style="edgeLabel;html=1;align=center;verticalAlign=middle;resizable=0;points=[];" vertex="1" connectable="0" parent="GKDBONKlt1VH__M1MJNB-9">
          <mxGeometry x="-0.15" y="3" relative="1" as="geometry">
            <mxPoint as="offset" />
          </mxGeometry>
        </mxCell>
        <mxCell id="GKDBONKlt1VH__M1MJNB-14" value="" style="edgeStyle=orthogonalEdgeStyle;rounded=0;orthogonalLoop=1;jettySize=auto;html=1;entryX=0;entryY=0.5;entryDx=0;entryDy=0;" edge="1" parent="1" source="GKDBONKlt1VH__M1MJNB-4" target="GKDBONKlt1VH__M1MJNB-2">
          <mxGeometry relative="1" as="geometry">
            <mxPoint x="130" y="220" as="targetPoint" />
          </mxGeometry>
        </mxCell>
        <mxCell id="GKDBONKlt1VH__M1MJNB-15" value="No" style="edgeLabel;html=1;align=center;verticalAlign=middle;resizable=0;points=[];" vertex="1" connectable="0" parent="GKDBONKlt1VH__M1MJNB-14">
          <mxGeometry x="-0.0331" y="-2" relative="1" as="geometry">
            <mxPoint as="offset" />
          </mxGeometry>
        </mxCell>
        <mxCell id="GKDBONKlt1VH__M1MJNB-4" value="Time matches&lt;div&gt;schedule?&lt;/div&gt;" style="rhombus;whiteSpace=wrap;html=1;rounded=0;" vertex="1" parent="1">
          <mxGeometry x="227.5" y="170" width="115" height="100" as="geometry" />
        </mxCell>
        <mxCell id="GKDBONKlt1VH__M1MJNB-19" value="" style="edgeStyle=orthogonalEdgeStyle;rounded=0;orthogonalLoop=1;jettySize=auto;html=1;" edge="1" parent="1" source="GKDBONKlt1VH__M1MJNB-8" target="GKDBONKlt1VH__M1MJNB-18">
          <mxGeometry relative="1" as="geometry" />
        </mxCell>
        <mxCell id="GKDBONKlt1VH__M1MJNB-20" value="NO" style="edgeLabel;html=1;align=center;verticalAlign=middle;resizable=0;points=[];" vertex="1" connectable="0" parent="GKDBONKlt1VH__M1MJNB-19">
          <mxGeometry x="-0.0812" y="-2" relative="1" as="geometry">
            <mxPoint as="offset" />
          </mxGeometry>
        </mxCell>
        <mxCell id="GKDBONKlt1VH__M1MJNB-25" value="" style="edgeStyle=orthogonalEdgeStyle;rounded=0;orthogonalLoop=1;jettySize=auto;html=1;" edge="1" parent="1" source="GKDBONKlt1VH__M1MJNB-8" target="GKDBONKlt1VH__M1MJNB-16">
          <mxGeometry relative="1" as="geometry" />
        </mxCell>
        <mxCell id="GKDBONKlt1VH__M1MJNB-26" value="Yes" style="edgeLabel;html=1;align=center;verticalAlign=middle;resizable=0;points=[];" vertex="1" connectable="0" parent="GKDBONKlt1VH__M1MJNB-25">
          <mxGeometry x="-0.4783" relative="1" as="geometry">
            <mxPoint as="offset" />
          </mxGeometry>
        </mxCell>
        <mxCell id="GKDBONKlt1VH__M1MJNB-8" value="Hoppe level&amp;nbsp;&lt;div&gt;OK?&lt;/div&gt;" style="rhombus;whiteSpace=wrap;html=1;rounded=0;" vertex="1" parent="1">
          <mxGeometry x="70" y="250" width="105" height="100" as="geometry" />
        </mxCell>
        <mxCell id="GKDBONKlt1VH__M1MJNB-28" value="" style="edgeStyle=orthogonalEdgeStyle;rounded=0;orthogonalLoop=1;jettySize=auto;html=1;" edge="1" parent="1" source="GKDBONKlt1VH__M1MJNB-16" target="GKDBONKlt1VH__M1MJNB-27">
          <mxGeometry relative="1" as="geometry" />
        </mxCell>
        <mxCell id="GKDBONKlt1VH__M1MJNB-16" value="Activate Motor to&amp;nbsp;&lt;div&gt;Dispense&lt;/div&gt;" style="whiteSpace=wrap;html=1;rounded=0;" vertex="1" parent="1">
          <mxGeometry x="55" y="400" width="120" height="60" as="geometry" />
        </mxCell>
        <mxCell id="GKDBONKlt1VH__M1MJNB-23" value="" style="edgeStyle=orthogonalEdgeStyle;rounded=0;orthogonalLoop=1;jettySize=auto;html=1;" edge="1" parent="1" source="GKDBONKlt1VH__M1MJNB-18" target="GKDBONKlt1VH__M1MJNB-22">
          <mxGeometry relative="1" as="geometry" />
        </mxCell>
        <mxCell id="GKDBONKlt1VH__M1MJNB-18" value="Send low&amp;nbsp;&lt;div&gt;Food Alert&lt;/div&gt;" style="whiteSpace=wrap;html=1;rounded=0;" vertex="1" parent="1">
          <mxGeometry x="345" y="270" width="85" height="60" as="geometry" />
        </mxCell>
        <mxCell id="GKDBONKlt1VH__M1MJNB-22" value="Log" style="whiteSpace=wrap;html=1;rounded=0;" vertex="1" parent="1">
          <mxGeometry x="480" y="275" width="50" height="50" as="geometry" />
        </mxCell>
        <mxCell id="GKDBONKlt1VH__M1MJNB-30" value="" style="edgeStyle=orthogonalEdgeStyle;rounded=0;orthogonalLoop=1;jettySize=auto;html=1;" edge="1" parent="1" source="GKDBONKlt1VH__M1MJNB-27" target="GKDBONKlt1VH__M1MJNB-29">
          <mxGeometry relative="1" as="geometry" />
        </mxCell>
        <mxCell id="GKDBONKlt1VH__M1MJNB-36" value="" style="edgeStyle=orthogonalEdgeStyle;rounded=0;orthogonalLoop=1;jettySize=auto;html=1;" edge="1" parent="1" source="GKDBONKlt1VH__M1MJNB-27" target="GKDBONKlt1VH__M1MJNB-35">
          <mxGeometry relative="1" as="geometry" />
        </mxCell>
        <mxCell id="GKDBONKlt1VH__M1MJNB-37" value="Yes" style="edgeLabel;html=1;align=center;verticalAlign=middle;resizable=0;points=[];" vertex="1" connectable="0" parent="GKDBONKlt1VH__M1MJNB-36">
          <mxGeometry x="-0.3333" y="-1" relative="1" as="geometry">
            <mxPoint as="offset" />
          </mxGeometry>
        </mxCell>
        <mxCell id="GKDBONKlt1VH__M1MJNB-27" value="Dispense&lt;div&gt;confirmed?&lt;/div&gt;" style="rhombus;whiteSpace=wrap;html=1;rounded=0;" vertex="1" parent="1">
          <mxGeometry x="275" y="390" width="95" height="80" as="geometry" />
        </mxCell>
        <mxCell id="GKDBONKlt1VH__M1MJNB-32" value="" style="edgeStyle=orthogonalEdgeStyle;rounded=0;orthogonalLoop=1;jettySize=auto;html=1;" edge="1" parent="1" source="GKDBONKlt1VH__M1MJNB-29" target="GKDBONKlt1VH__M1MJNB-31">
          <mxGeometry relative="1" as="geometry" />
        </mxCell>
        <mxCell id="GKDBONKlt1VH__M1MJNB-33" value="" style="edgeStyle=orthogonalEdgeStyle;rounded=0;orthogonalLoop=1;jettySize=auto;html=1;" edge="1" parent="1" source="GKDBONKlt1VH__M1MJNB-29" target="GKDBONKlt1VH__M1MJNB-27">
          <mxGeometry relative="1" as="geometry" />
        </mxCell>
        <mxCell id="GKDBONKlt1VH__M1MJNB-29" value="Send Low food dispense Alert" style="whiteSpace=wrap;html=1;rounded=0;" vertex="1" parent="1">
          <mxGeometry x="425" y="400" width="120" height="60" as="geometry" />
        </mxCell>
        <mxCell id="GKDBONKlt1VH__M1MJNB-31" value="Log" style="whiteSpace=wrap;html=1;rounded=0;" vertex="1" parent="1">
          <mxGeometry x="590" y="405" width="70" height="50" as="geometry" />
        </mxCell>
        <mxCell id="GKDBONKlt1VH__M1MJNB-34" value="No" style="text;html=1;align=center;verticalAlign=middle;resizable=0;points=[];autosize=1;strokeColor=none;fillColor=none;" vertex="1" parent="1">
          <mxGeometry x="380" y="408" width="40" height="30" as="geometry" />
        </mxCell>
        <mxCell id="GKDBONKlt1VH__M1MJNB-39" value="" style="edgeStyle=orthogonalEdgeStyle;rounded=0;orthogonalLoop=1;jettySize=auto;html=1;" edge="1" parent="1" source="GKDBONKlt1VH__M1MJNB-35" target="GKDBONKlt1VH__M1MJNB-38">
          <mxGeometry relative="1" as="geometry" />
        </mxCell>
        <mxCell id="GKDBONKlt1VH__M1MJNB-35" value="Measure Bowl weight&lt;div&gt;Start 30 min Timer&lt;/div&gt;" style="whiteSpace=wrap;html=1;rounded=0;" vertex="1" parent="1">
          <mxGeometry x="262.5" y="560" width="120" height="60" as="geometry" />
        </mxCell>
        <mxCell id="GKDBONKlt1VH__M1MJNB-41" value="" style="edgeStyle=orthogonalEdgeStyle;rounded=0;orthogonalLoop=1;jettySize=auto;html=1;" edge="1" parent="1" source="GKDBONKlt1VH__M1MJNB-38" target="GKDBONKlt1VH__M1MJNB-40">
          <mxGeometry relative="1" as="geometry" />
        </mxCell>
        <mxCell id="GKDBONKlt1VH__M1MJNB-44" value="Yes" style="edgeLabel;html=1;align=center;verticalAlign=middle;resizable=0;points=[];" vertex="1" connectable="0" parent="GKDBONKlt1VH__M1MJNB-41">
          <mxGeometry x="-0.0514" y="-4" relative="1" as="geometry">
            <mxPoint as="offset" />
          </mxGeometry>
        </mxCell>
        <mxCell id="GKDBONKlt1VH__M1MJNB-43" value="" style="edgeStyle=orthogonalEdgeStyle;rounded=0;orthogonalLoop=1;jettySize=auto;html=1;" edge="1" parent="1" source="GKDBONKlt1VH__M1MJNB-38" target="GKDBONKlt1VH__M1MJNB-42">
          <mxGeometry relative="1" as="geometry" />
        </mxCell>
        <mxCell id="GKDBONKlt1VH__M1MJNB-45" value="No" style="edgeLabel;html=1;align=center;verticalAlign=middle;resizable=0;points=[];" vertex="1" connectable="0" parent="GKDBONKlt1VH__M1MJNB-43">
          <mxGeometry x="-0.4355" y="4" relative="1" as="geometry">
            <mxPoint as="offset" />
          </mxGeometry>
        </mxCell>
        <mxCell id="GKDBONKlt1VH__M1MJNB-38" value="Weight reduction&amp;gt;=80%" style="rhombus;whiteSpace=wrap;html=1;rounded=0;" vertex="1" parent="1">
          <mxGeometry x="263.75" y="680" width="117.5" height="120" as="geometry" />
        </mxCell>
        <mxCell id="GKDBONKlt1VH__M1MJNB-40" value="Log: Food Eaten" style="whiteSpace=wrap;html=1;rounded=0;" vertex="1" parent="1">
          <mxGeometry x="460" y="710" width="120" height="60" as="geometry" />
        </mxCell>
        <mxCell id="GKDBONKlt1VH__M1MJNB-47" value="" style="edgeStyle=orthogonalEdgeStyle;rounded=0;orthogonalLoop=1;jettySize=auto;html=1;" edge="1" parent="1" source="GKDBONKlt1VH__M1MJNB-42" target="GKDBONKlt1VH__M1MJNB-46">
          <mxGeometry relative="1" as="geometry" />
        </mxCell>
        <mxCell id="GKDBONKlt1VH__M1MJNB-42" value="Send Food not eaten Alert" style="whiteSpace=wrap;html=1;rounded=0;" vertex="1" parent="1">
          <mxGeometry x="80" y="710" width="120" height="60" as="geometry" />
        </mxCell>
        <mxCell id="GKDBONKlt1VH__M1MJNB-49" value="" style="edgeStyle=orthogonalEdgeStyle;rounded=0;orthogonalLoop=1;jettySize=auto;html=1;entryX=0;entryY=0.25;entryDx=0;entryDy=0;" edge="1" parent="1" source="GKDBONKlt1VH__M1MJNB-46" target="GKDBONKlt1VH__M1MJNB-2">
          <mxGeometry relative="1" as="geometry">
            <mxPoint x="182.5" y="1000" as="targetPoint" />
            <Array as="points">
              <mxPoint x="30" y="870" />
              <mxPoint x="30" y="93" />
            </Array>
          </mxGeometry>
        </mxCell>
        <mxCell id="GKDBONKlt1VH__M1MJNB-46" value="Waiting State" style="whiteSpace=wrap;html=1;rounded=0;" vertex="1" parent="1">
          <mxGeometry x="80" y="830" width="120" height="60" as="geometry" />
        </mxCell>
      </root>
    </mxGraphModel>
  </diagram>
</mxfile>
